<?xml version="1.0" encoding="UTF-8" standalone="no"?>
<svg
   xmlns:dc="http://purl.org/dc/elements/1.1/"
   xmlns:cc="http://creativecommons.org/ns#"
   xmlns:rdf="http://www.w3.org/1999/02/22-rdf-syntax-ns#"
   xmlns:svg="http://www.w3.org/2000/svg"
   xmlns="http://www.w3.org/2000/svg"
   xmlns:xlink="http://www.w3.org/1999/xlink"
   xmlns:sodipodi="http://sodipodi.sourceforge.net/DTD/sodipodi-0.dtd"
   xmlns:inkscape="http://www.inkscape.org/namespaces/inkscape"
   inkscape:export-ydpi="96"
   inkscape:export-xdpi="96"
   inkscape:export-filename="/home/rubbiekelvin/stuffsbyrubbie/portfolio/project-icons/png/parentfolder.png"
   sodipodi:docname="musicfolder.svg"
   inkscape:version="1.0 (4035a4fb49, 2020-05-01)"
   id="svg1113"
   version="1.1"
   viewBox="0 0 63.385899 57.999981"
   height="57.999981mm"
   width="63.385899mm">
  <defs
     id="defs1107">
    <linearGradient
       gradientTransform="matrix(-0.84389022,0,0,0.79232541,123.88404,28.43537)"
       y2="166.22635"
       x2="112.24814"
       y1="114.42403"
       x1="44.236679"
       gradientUnits="userSpaceOnUse"
       id="linearGradient868-3"
       xlink:href="#linearGradient839"
       inkscape:collect="always" />
    <linearGradient
       inkscape:collect="always"
       id="linearGradient839">
      <stop
         style="stop-color:#46baff;stop-opacity:1"
         offset="0"
         id="stop835" />
      <stop
         style="stop-color:#5860ff;stop-opacity:1"
         offset="1"
         id="stop837" />
    </linearGradient>
  </defs>
  <sodipodi:namedview
     inkscape:window-maximized="1"
     inkscape:window-y="18"
     inkscape:window-x="0"
     inkscape:window-height="713"
     inkscape:window-width="1366"
     showgrid="false"
     inkscape:document-rotation="0"
     inkscape:current-layer="g944"
     inkscape:document-units="mm"
     inkscape:cy="109.37407"
     inkscape:cx="141.94308"
     inkscape:zoom="2.1257311"
     inkscape:pageshadow="2"
     inkscape:pageopacity="0.0"
     borderopacity="1.0"
     bordercolor="#666666"
     pagecolor="#ffffff"
     id="base" />
  <metadata
     id="metadata1110">
    <rdf:RDF>
      <cc:Work
         rdf:about="">
        <dc:format>image/svg+xml</dc:format>
        <dc:type
           rdf:resource="http://purl.org/dc/dcmitype/StillImage" />
        <dc:title />
      </cc:Work>
    </rdf:RDF>
  </metadata>
  <g
     transform="translate(-59.962084,-139.63882)"
     id="layer1"
     inkscape:groupmode="layer"
     inkscape:label="Layer 1">
    <g
       transform="translate(30.803141,37.498064)"
       id="g944">
      <path
         sodipodi:nodetypes="sscssssssss"
         d="m 33.047273,102.16987 c 0,0 17.947745,-0.0655 21.414195,0 2.707683,0.0512 6.786688,5.3029 6.786688,5.3029 h 27.408366 c 2.154127,0 3.888321,2.05937 3.888321,4.61741 v 43.43315 c 0,2.55805 -1.734194,4.61741 -3.888321,4.61741 H 33.047273 c -2.154134,0 -3.88833,-2.05936 -3.88833,-4.61741 v -48.73605 c 0,-2.55805 1.734196,-4.61741 3.88833,-4.61741 z"
         style="fill:#5860ff;fill-opacity:1;stroke:none;stroke-width:0.398191;stroke-linecap:round"
         id="rect10" />
      <path
         id="rect10-2"
         style="fill:url(#linearGradient868-3);fill-opacity:1;stroke:none;stroke-width:0.354065;stroke-linecap:round"
         d="m 88.656513,114.30624 c 0,0 -17.947745,-0.0517 -21.414195,0 -2.707682,0.0405 -6.786687,4.19273 -6.786687,4.19273 H 33.047262 c -2.154124,0 -3.888319,1.62823 -3.888319,3.65074 v 34.34028 c 0,2.02253 1.734195,3.65074 3.888319,3.65074 h 55.609251 c 2.154136,0 3.88833,-1.62821 3.88833,-3.65074 v -38.53301 c 0,-2.0225 -1.734194,-3.65074 -3.88833,-3.65074 z"
         sodipodi:nodetypes="sscssssssss" />
      <g
         style="fill:#ffffff"
         id="g857"
         transform="matrix(1.2241705,0,0,1.1484063,32.253464,137.2349)">
        <path
           id="path837"
           d="m 4,1 h 8 a 2,2 0 0 1 2,2 v 10 a 2,2 0 0 1 -2,2 H 4 A 2,2 0 0 1 2,13 V 3 A 2,2 0 0 1 4,1 Z M 4,2 A 1,1 0 0 0 3,3 v 10 a 1,1 0 0 0 1,1 h 8 a 1,1 0 0 0 1,-1 V 3 A 1,1 0 0 0 12,2 Z"
           fill-rule="evenodd"
           style="fill:#ffffff" />
        <path
           id="path839"
           d="M 9,11.5 C 9,12.328 8.105,13 7,13 5.895,13 5,12.328 5,11.5 5,10.672 5.895,10 7,10 c 1.105,0 2,0.672 2,1.5 z"
           style="fill:#ffffff" />
        <path
           id="path841"
           d="m 9,5 v 6.5 H 8 V 5 Z"
           fill-rule="evenodd"
           style="fill:#ffffff" />
        <path
           id="path843"
           d="M 8,4.754 A 1,1 0 0 1 8.725,3.793 l 1.5,-0.429 A 1,1 0 0 1 11.5,4.326 V 6 L 8,7 Z"
           style="fill:#ffffff" />
      </g>
    </g>
  </g>
</svg>
